<svg width="267" height="23" viewBox="0 0 267 23" fill="none" xmlns="http://www.w3.org/2000/svg">
<path d="M1.404 18V5.31H3.726V10.602H10.224V5.31H12.546V18H10.224V12.528H3.726V18H1.404ZM19.2675 18.18C18.3315 18.18 17.5215 17.988 16.8375 17.604C16.1535 17.22 15.6195 16.674 15.2355 15.966C14.8635 15.258 14.6775 14.418 14.6775 13.446C14.6775 12.474 14.8635 11.64 15.2355 10.944C15.6195 10.236 16.1535 9.69 16.8375 9.306C17.5215 8.922 18.3315 8.73 19.2675 8.73C20.2035 8.73 21.0135 8.922 21.6975 9.306C22.3935 9.69 22.9275 10.236 23.2995 10.944C23.6835 11.64 23.8755 12.474 23.8755 13.446C23.8755 14.418 23.6835 15.258 23.2995 15.966C22.9275 16.674 22.3935 17.22 21.6975 17.604C21.0135 17.988 20.2035 18.18 19.2675 18.18ZM19.2675 16.452C19.9755 16.452 20.5395 16.206 20.9595 15.714C21.3795 15.21 21.5895 14.454 21.5895 13.446C21.5895 12.438 21.3795 11.688 20.9595 11.196C20.5395 10.704 19.9755 10.458 19.2675 10.458C18.5595 10.458 17.9955 10.704 17.5755 11.196C17.1555 11.688 16.9455 12.438 16.9455 13.446C16.9455 14.454 17.1555 15.21 17.5755 15.714C17.9955 16.206 18.5595 16.452 19.2675 16.452ZM25.8158 18V11.178C25.8158 10.806 25.8038 10.428 25.7798 10.044C25.7558 9.66 25.7198 9.282 25.6718 8.91H27.8498L28.0298 10.71H27.8138C28.0658 10.086 28.4498 9.6 28.9658 9.252C29.4938 8.904 30.1178 8.73 30.8378 8.73C31.5578 8.73 32.1518 8.904 32.6198 9.252C33.0998 9.588 33.4358 10.116 33.6278 10.836H33.3398C33.5918 10.188 34.0058 9.678 34.5818 9.306C35.1578 8.922 35.8178 8.73 36.5618 8.73C37.5818 8.73 38.3438 9.03 38.8478 9.63C39.3518 10.23 39.6038 11.166 39.6038 12.438V18H37.3538V12.528C37.3538 11.808 37.2338 11.292 36.9938 10.98C36.7538 10.656 36.3698 10.494 35.8418 10.494C35.2178 10.494 34.7258 10.716 34.3658 11.16C34.0058 11.592 33.8258 12.18 33.8258 12.924V18H31.5758V12.528C31.5758 11.808 31.4558 11.292 31.2158 10.98C30.9758 10.656 30.5918 10.494 30.0638 10.494C29.4398 10.494 28.9478 10.716 28.5878 11.16C28.2398 11.592 28.0658 12.18 28.0658 12.924V18H25.8158ZM46.3973 18.18C44.8733 18.18 43.6793 17.76 42.8153 16.92C41.9513 16.08 41.5193 14.928 41.5193 13.464C41.5193 12.516 41.7053 11.688 42.0773 10.98C42.4493 10.272 42.9653 9.72 43.6253 9.324C44.2973 8.928 45.0773 8.73 45.9653 8.73C46.8413 8.73 47.5733 8.916 48.1613 9.288C48.7493 9.66 49.1933 10.182 49.4933 10.854C49.8053 11.526 49.9613 12.312 49.9613 13.212V13.806H43.3373V12.618H48.3593L48.0533 12.87C48.0533 12.03 47.8733 11.388 47.5133 10.944C47.1653 10.5 46.6553 10.278 45.9833 10.278C45.2393 10.278 44.6633 10.542 44.2553 11.07C43.8593 11.598 43.6613 12.336 43.6613 13.284V13.518C43.6613 14.502 43.9013 15.24 44.3813 15.732C44.8733 16.212 45.5633 16.452 46.4513 16.452C46.9673 16.452 47.4473 16.386 47.8913 16.254C48.3473 16.11 48.7793 15.882 49.1873 15.57L49.8533 17.082C49.4213 17.43 48.9053 17.7 48.3053 17.892C47.7053 18.084 47.0693 18.18 46.3973 18.18Z" fill="#1F1534"/>
<path opacity="0.5" d="M104.724 18.162C103.704 18.162 102.792 18.03 101.988 17.766C101.184 17.502 100.482 17.124 99.882 16.632L100.422 15.444C100.842 15.756 101.262 16.02 101.682 16.236C102.114 16.44 102.576 16.596 103.068 16.704C103.56 16.8 104.112 16.848 104.724 16.848C105.792 16.848 106.584 16.65 107.1 16.254C107.616 15.858 107.874 15.33 107.874 14.67C107.874 14.106 107.694 13.674 107.334 13.374C106.974 13.074 106.344 12.834 105.444 12.654L103.554 12.276C102.39 12.036 101.52 11.646 100.944 11.106C100.38 10.566 100.098 9.834 100.098 8.91C100.098 8.154 100.29 7.494 100.674 6.93C101.07 6.366 101.622 5.928 102.33 5.616C103.038 5.304 103.86 5.148 104.796 5.148C105.696 5.148 106.518 5.286 107.262 5.562C108.006 5.826 108.642 6.216 109.17 6.732L108.648 7.884C108.084 7.38 107.49 7.02 106.866 6.804C106.254 6.576 105.558 6.462 104.778 6.462C103.794 6.462 103.014 6.678 102.438 7.11C101.874 7.53 101.592 8.106 101.592 8.838C101.592 9.426 101.772 9.888 102.132 10.224C102.492 10.548 103.086 10.794 103.914 10.962L105.822 11.34C107.046 11.592 107.946 11.97 108.522 12.474C109.098 12.978 109.386 13.686 109.386 14.598C109.386 15.294 109.194 15.912 108.81 16.452C108.438 16.992 107.904 17.412 107.208 17.712C106.512 18.012 105.684 18.162 104.724 18.162ZM115.345 18.162C114.481 18.162 113.725 17.976 113.077 17.604C112.441 17.22 111.949 16.68 111.601 15.984C111.253 15.276 111.079 14.442 111.079 13.482C111.079 12.51 111.253 11.676 111.601 10.98C111.949 10.284 112.441 9.75 113.077 9.378C113.725 8.994 114.481 8.802 115.345 8.802C116.221 8.802 116.977 8.994 117.613 9.378C118.261 9.75 118.759 10.284 119.107 10.98C119.467 11.676 119.647 12.51 119.647 13.482C119.647 14.442 119.467 15.276 119.107 15.984C118.759 16.68 118.261 17.22 117.613 17.604C116.977 17.976 116.221 18.162 115.345 18.162ZM115.345 16.974C116.209 16.974 116.893 16.68 117.397 16.092C117.901 15.492 118.153 14.622 118.153 13.482C118.153 12.33 117.895 11.46 117.379 10.872C116.875 10.272 116.197 9.972 115.345 9.972C114.493 9.972 113.815 10.272 113.311 10.872C112.807 11.46 112.555 12.33 112.555 13.482C112.555 14.622 112.807 15.492 113.311 16.092C113.815 16.68 114.493 16.974 115.345 16.974ZM126.456 18.162C125.64 18.162 124.938 17.958 124.35 17.55C123.762 17.13 123.366 16.56 123.162 15.84H123.36V18H121.92V4.752H123.378V11.07H123.162C123.366 10.374 123.762 9.822 124.35 9.414C124.938 9.006 125.64 8.802 126.456 8.802C127.272 8.802 127.974 8.994 128.562 9.378C129.162 9.75 129.624 10.284 129.948 10.98C130.284 11.676 130.452 12.51 130.452 13.482C130.452 14.454 130.284 15.288 129.948 15.984C129.612 16.68 129.144 17.22 128.544 17.604C127.956 17.976 127.26 18.162 126.456 18.162ZM126.15 16.974C127.002 16.974 127.686 16.68 128.202 16.092C128.718 15.504 128.976 14.634 128.976 13.482C128.976 12.33 128.718 11.46 128.202 10.872C127.686 10.272 127.002 9.972 126.15 9.972C125.298 9.972 124.614 10.272 124.098 10.872C123.594 11.46 123.342 12.33 123.342 13.482C123.342 14.622 123.594 15.492 124.098 16.092C124.614 16.68 125.298 16.974 126.15 16.974ZM132.677 18V11.142C132.677 10.782 132.665 10.416 132.641 10.044C132.629 9.672 132.605 9.312 132.569 8.964H133.973L134.153 11.16L133.901 11.178C134.021 10.638 134.231 10.194 134.531 9.846C134.831 9.498 135.185 9.24 135.593 9.072C136.001 8.892 136.427 8.802 136.871 8.802C137.051 8.802 137.207 8.808 137.339 8.82C137.483 8.832 137.615 8.862 137.735 8.91L137.717 10.206C137.537 10.146 137.369 10.11 137.213 10.098C137.069 10.074 136.901 10.062 136.709 10.062C136.181 10.062 135.719 10.188 135.323 10.44C134.939 10.692 134.645 11.016 134.441 11.412C134.249 11.808 134.153 12.228 134.153 12.672V18H132.677ZM143.161 18.162C141.745 18.162 140.629 17.754 139.813 16.938C138.997 16.11 138.589 14.964 138.589 13.5C138.589 12.552 138.769 11.73 139.129 11.034C139.489 10.326 139.993 9.78 140.641 9.396C141.289 9 142.033 8.802 142.873 8.802C143.701 8.802 144.397 8.976 144.961 9.324C145.525 9.672 145.957 10.17 146.257 10.818C146.557 11.454 146.707 12.21 146.707 13.086V13.626H139.705V12.708H145.753L145.447 12.942C145.447 11.982 145.231 11.232 144.799 10.692C144.367 10.152 143.725 9.882 142.873 9.882C141.973 9.882 141.271 10.2 140.767 10.836C140.263 11.46 140.011 12.306 140.011 13.374V13.536C140.011 14.664 140.287 15.522 140.839 16.11C141.403 16.686 142.189 16.974 143.197 16.974C143.737 16.974 144.241 16.896 144.709 16.74C145.189 16.572 145.645 16.302 146.077 15.93L146.581 16.956C146.185 17.34 145.681 17.64 145.069 17.856C144.469 18.06 143.833 18.162 143.161 18.162Z" fill="#1F1534"/>
<path opacity="0.5" d="M200.662 18V6.57H196.18V5.31H206.62V6.57H202.156V18H200.662ZM206.896 18V11.142C206.896 10.782 206.884 10.416 206.86 10.044C206.848 9.672 206.824 9.312 206.788 8.964H208.192L208.372 11.16L208.12 11.178C208.24 10.638 208.45 10.194 208.75 9.846C209.05 9.498 209.404 9.24 209.812 9.072C210.22 8.892 210.646 8.802 211.09 8.802C211.27 8.802 211.426 8.808 211.558 8.82C211.702 8.832 211.834 8.862 211.954 8.91L211.936 10.206C211.756 10.146 211.588 10.11 211.432 10.098C211.288 10.074 211.12 10.062 210.928 10.062C210.4 10.062 209.938 10.188 209.542 10.44C209.158 10.692 208.864 11.016 208.66 11.412C208.468 11.808 208.372 12.228 208.372 12.672V18H206.896ZM217.379 18.162C215.963 18.162 214.847 17.754 214.031 16.938C213.215 16.11 212.807 14.964 212.807 13.5C212.807 12.552 212.987 11.73 213.347 11.034C213.707 10.326 214.211 9.78 214.859 9.396C215.507 9 216.251 8.802 217.091 8.802C217.919 8.802 218.615 8.976 219.179 9.324C219.743 9.672 220.175 10.17 220.475 10.818C220.775 11.454 220.925 12.21 220.925 13.086V13.626H213.923V12.708H219.971L219.665 12.942C219.665 11.982 219.449 11.232 219.017 10.692C218.585 10.152 217.943 9.882 217.091 9.882C216.191 9.882 215.489 10.2 214.985 10.836C214.481 11.46 214.229 12.306 214.229 13.374V13.536C214.229 14.664 214.505 15.522 215.057 16.11C215.621 16.686 216.407 16.974 217.415 16.974C217.955 16.974 218.459 16.896 218.927 16.74C219.407 16.572 219.863 16.302 220.295 15.93L220.799 16.956C220.403 17.34 219.899 17.64 219.287 17.856C218.687 18.06 218.051 18.162 217.379 18.162ZM223.156 18V8.964H224.614V18H223.156ZM222.976 6.912V5.274H224.776V6.912H222.976ZM227.445 18V11.052C227.445 10.716 227.427 10.374 227.391 10.026C227.367 9.666 227.337 9.312 227.301 8.964H228.705L228.885 10.944H228.669C228.933 10.248 229.353 9.72 229.929 9.36C230.517 8.988 231.195 8.802 231.963 8.802C233.031 8.802 233.835 9.09 234.375 9.666C234.927 10.23 235.203 11.124 235.203 12.348V18H233.745V12.438C233.745 11.586 233.571 10.968 233.223 10.584C232.887 10.188 232.359 9.99 231.639 9.99C230.799 9.99 230.133 10.248 229.641 10.764C229.149 11.28 228.903 11.97 228.903 12.834V18H227.445ZM241.43 18.162C240.626 18.162 239.924 17.976 239.324 17.604C238.724 17.22 238.256 16.68 237.92 15.984C237.596 15.288 237.434 14.454 237.434 13.482C237.434 12.498 237.596 11.658 237.92 10.962C238.256 10.266 238.724 9.732 239.324 9.36C239.924 8.988 240.626 8.802 241.43 8.802C242.246 8.802 242.948 9.012 243.536 9.432C244.136 9.84 244.532 10.398 244.724 11.106H244.508L244.706 8.964H246.11C246.074 9.312 246.038 9.666 246.002 10.026C245.978 10.374 245.966 10.716 245.966 11.052V18H244.508V15.876H244.706C244.514 16.584 244.118 17.142 243.518 17.55C242.918 17.958 242.222 18.162 241.43 18.162ZM241.718 16.974C242.582 16.974 243.266 16.68 243.77 16.092C244.274 15.492 244.526 14.622 244.526 13.482C244.526 12.33 244.274 11.46 243.77 10.872C243.266 10.272 242.582 9.972 241.718 9.972C240.866 9.972 240.182 10.272 239.666 10.872C239.162 11.46 238.91 12.33 238.91 13.482C238.91 14.622 239.162 15.492 239.666 16.092C240.182 16.68 240.866 16.974 241.718 16.974ZM248.749 18V11.142C248.749 10.782 248.737 10.416 248.713 10.044C248.701 9.672 248.677 9.312 248.641 8.964H250.045L250.225 11.16L249.973 11.178C250.093 10.638 250.303 10.194 250.603 9.846C250.903 9.498 251.257 9.24 251.665 9.072C252.073 8.892 252.499 8.802 252.943 8.802C253.123 8.802 253.279 8.808 253.411 8.82C253.555 8.832 253.687 8.862 253.807 8.91L253.789 10.206C253.609 10.146 253.441 10.11 253.285 10.098C253.141 10.074 252.973 10.062 252.781 10.062C252.253 10.062 251.791 10.188 251.395 10.44C251.011 10.692 250.717 11.016 250.513 11.412C250.321 11.808 250.225 12.228 250.225 12.672V18H248.749Z" fill="#1F1534"/>
</svg>
